# xmcd
#
# Track frame offsets:
#	150
#	11460
#	26470
#	40576
#	53571
#	69367
#	81784
#	105132
#	116751
#	131808
#	146214
#	162581
#	175297
#	188536
#
# Disc length: 2666 seconds
#
# Revision: 1
# Processed by: cddbd v1.5.2PL0 Copyright (c) Steve Scherf et al.
# Submitted via: EasyCDDAExtractor 6.2.0.3
#
DISCID=af0a680e
DTITLE=Erich Lindenthaler - Doing Some Rock 'n' Roll
DYEAR=2014
DGENRE=Rock and Roll
TTITLE0=I Can Really Rock
TTITLE1=Checkin' Up
TTITLE2=Big Fat Mama With the Golden Pyjama
TTITLE3=Miss Lorraine
TTITLE4=Waiting On You
TTITLE5=First Time Love
TTITLE6=Shine On
TTITLE7=I Will
TTITLE8=Got a Mojo
TTITLE9=Look, Look, Look
TTITLE10=Watch the Sky
TTITLE11=Why Can't You See
TTITLE12=Swear Mama
TTITLE13=Nothing but the Blues Is Gonna Turn Me On
EXTD=
EXTT0=
EXTT1=
EXTT2=
EXTT3=
EXTT4=
EXTT5=
EXTT6=
EXTT7=
EXTT8=
EXTT9=
EXTT10=
EXTT11=
EXTT12=
EXTT13=
PLAYORDER=
